<?xml version="1.0" encoding="utf-8"?>
<!-- Generator: Adobe Illustrator 23.0.3, SVG Export Plug-In . SVG Version: 6.00 Build 0)  -->
<svg version="1.1" id="Layer_1" xmlns="http://www.w3.org/2000/svg" xmlns:xlink="http://www.w3.org/1999/xlink" x="0px" y="0px"
	 viewBox="0 0 3256.18 483.1" style="enable-background:new 0 0 3256.18 483.1;" xml:space="preserve">
<style type="text/css">
	.st0{fill:#F4D949;}
</style>
<path class="st0" d="M3256.18,96.54c0,33.23-17.64,65.48-50.82,96.25c1.63-30.67,2.47-61.57,2.48-92.68c0-0.27,0-0.54,0-0.81
	c0-2.18-0.01-4.36-0.02-6.55c-0.11-31.13-1.04-62.05-2.77-92.76C3238.43,30.86,3256.18,63.21,3256.18,96.54z M2768.4,322.9
	c-304,72.22-708.95,111.99-1140.25,111.99S791.91,395.11,487.91,322.9C168.99,247.13,51.86,155.37,47.82,98.75
	c0-2.07,0.01-4.15,0.02-6.22c0.01-0.2,0.02-0.39,0.04-0.59h-0.04c0.02-4.51,0.05-9.02,0.11-13.54c0.04-4.03,0.09-8.05,0.17-12.08
	c0.04-2.9,0.09-5.8,0.13-8.7l0.22-6.06l0.39-12.25c0-0.61,0-1.21,0.04-1.82c0.04-1.9,0.13-3.9,0.13-5.71
	c0.17-4.5,0.35-8.87,0.65-13.33c0.04-0.95,0.09-1.95,0.17-2.94c0.26-5.07,0.53-10.16,0.81-15.25C17.59,30.99,0,63.2,0,96.38
	c0,33.02,17.42,65.07,50.19,95.67c0,0.01,0,0.03,0,0.04C229.62,359.38,868.07,483.1,1628.15,483.1
	c759.4,0,1397.37-123.5,1577.47-290.56c1.63-30.67,2.47-61.57,2.48-92.68C3203.36,156.5,3086.29,247.38,2768.4,322.9z"/>
</svg>
