<?xml version="1.0" encoding="utf-8"?>
<!-- Generator: Adobe Illustrator 23.0.3, SVG Export Plug-In . SVG Version: 6.00 Build 0)  -->
<svg version="1.1" id="Layer_3" xmlns="http://www.w3.org/2000/svg" xmlns:xlink="http://www.w3.org/1999/xlink" x="0px" y="0px"
	 viewBox="0 0 3162.16 3716.32" style="enable-background:new 0 0 3162.16 3716.32;" xml:space="preserve">
<style type="text/css">
	.st0{fill:#12B27D;}
	.st1{fill:#15CC93;}
	.st2{fill:#1AEBB7;}
</style>
<g>
	<path class="st0" d="M1723.22,507.25c0,0-10.18-0.43-26.03-1.25c-27.33-1.21-71.94-3.63-111.66-6.87
		c-23.82-2.07-45.82-4.5-61.5-7.13c-23.61-4.06-38.07-23.6-46.86-44.92c-2.82-7.13-5.07-14.27-6.71-21.18
		c-4.68-17.25-6.32-32.72-6.71-39.64c-0.22-2.42-0.22-3.63-0.22-3.63s45.82-35.58,45.82-61c0-25.42-11.39-139.67,14.68-195.57
		c26.07-55.94,0.61-96.57,26.07-96.57c13.82,0,40.24-5.97,60.33-4.97c16.94,0.86,29.37,6.7,26.03,25.29
		c-7.32,40.68-35.43,104.1-35.43,139.67c0,35.58,2.64,114.47,7.71,127.05c5.11,12.84,68.04,67.91,68.04,67.91l8.71,23.04
		L1723.22,507.25z"/>
	<path class="st1" d="M1685.5,407.47c-13.34,5.84-27.59,8.82-42.4,7.57c-76.88-6.48-41.15-70.25-59.04-149.23
		c-17.89-78.98,7.06-45.3-9.18-114.47c-9.79-41.72,14.6-92.81,35.56-126.83c16.94,0.86,29.37,6.7,26.03,25.29
		c-7.32,40.68-35.43,104.1-35.43,139.67c0,35.58,2.64,114.47,7.71,127.05c5.11,12.84,68.04,67.91,68.04,67.91L1685.5,407.47z"/>
	<path class="st2" d="M3162.16,2036.64c0,68.91-4.03,136.78-11.78,203.44c-20.49,175.12-67.05,341.64-135.48,495.32
		c-9.05,20.36-18.49,40.51-28.33,60.39c-1.86,4.06-3.68,7.91-5.72,11.8c-14.86,29.66-30.75,58.96-47.47,87.63
		c-12.43,21.31-25.03,42.28-38.29,62.81c-38.68,60.78-81.25,118.53-127.3,173c-0.22,0.39-0.43,0.82-0.82,1.21
		c-21.18,25.03-42.97,49.41-65.4,73.01c-55.79,58.75-115.86,113.22-179.83,162.63c-14.68,11.58-29.54,22.57-44.61,33.55
		c-57.65,41.89-118.37,79.5-181.31,112.83c-13.04,6.92-26.25,13.83-39.72,20.32c-2.04,1.04-4.29,2.25-6.5,3.24
		c-6.32,3.29-12.86,6.31-19.36,9.16c-1.21,0.82-2.64,1.43-4.07,2.03c-1.43,0.61-2.64,1.21-4.07,1.82c-3.9,2.07-7.97,3.89-11.82,5.49
		c-1.65,0.82-3.25,1.64-4.89,2.25c-4.29,1.86-8.36,3.89-12.6,5.71c-5.93,2.42-11.82,5.06-17.54,7.52c-3.03,1.43-6.11,2.64-9.14,3.85
		c-9.18,3.89-18.36,7.52-27.5,11.2c-1.65,0.61-3.08,1.21-4.72,1.82c-9.14,3.67-18.32,7.13-27.46,10.38h-0.22
		c-7.1,2.64-14.21,5.19-21.35,7.74c-45.39,15.99-91.78,29.87-138.95,41.46c0,0-0.22,0-0.61,0.22
		c-68.65,16.86-139.34,29.05-211.24,35.97c-49.29,5.1-99.4,7.52-149.95,7.52c0,0,0,0-0.17,0c-13.04,0-26.07-0.17-39.02-0.56
		c-29.37-0.69-58.47-2.33-87.27-4.71c-43.57-3.68-86.76-9.17-129.33-16.47c-86.37-14.65-170.09-36.79-251.17-65.66h-0.22
		c-40.32-14.22-79.83-30.3-118.76-47.98l-0.17-0.22c-55.22-24.77-108.8-53.26-160.52-84.34c-0.22-0.22-0.22-0.22-0.22-0.22
		c-55.79-33.76-109.58-70.94-160.91-111.62c0,0-0.39-0.22-0.39-0.39c-27.2-21.44-53.66-43.7-79.39-66.88
		c-43.14-38.82-84.29-80.06-123.31-123.63c0-0.22-0.22-0.22-0.39-0.39c-122.23-136.65-222.67-295.21-295.18-469.42
		c-3.59-8.6-7.1-17.25-10.57-25.94c-1.65-4.11-3.29-8.17-4.89-12.28c-1.56-4.15-3.12-8.3-4.68-12.41
		c-3.34-8.82-6.58-17.59-9.79-26.46c-1.43-3.93-2.82-7.82-4.2-11.76c-1.69-4.67-3.33-9.34-4.89-14.05
		c-2.47-7.22-4.89-14.44-7.19-21.74c-3.47-10.37-6.71-20.92-10.01-31.3c-0.13-0.43-0.3-0.95-0.43-1.3c0,0-0.04-0.04-0.04-0.09
		c-0.04-0.09-0.09-0.17-0.13-0.26c-1.95-6.18-3.68-12.23-5.46-18.46c-0.09-0.26-0.17-0.56-0.26-0.86
		c-1.52-4.89-2.81-9.77-4.16-14.53c-0.48-1.56-0.91-3.16-1.34-4.75c-0.39-1.51-0.82-3.11-1.3-4.71c-0.48-1.64-0.95-3.29-1.34-4.93
		c-1.82-6.87-3.64-13.75-5.5-20.66c-0.22-0.82-0.43-1.64-0.65-2.46c-0.17-0.43-0.26-0.86-0.35-1.3c-0.09-0.43-0.17-0.86-0.22-1.34
		c-1.21-4.45-2.25-8.95-3.25-13.4c-0.39-0.43-0.39-0.82-0.39-1.21c-2.38-8.95-4.55-17.98-6.63-27.1
		c-2.12-9.12-4.07-18.33-6.02-27.58c-0.22-0.82-0.39-1.86-0.61-2.85c-0.22-1.04-0.43-2.03-0.61-3.07
		c-2.25-10.98-4.5-21.96-6.54-32.94c-0.17-1.12-0.56-2.29-0.78-3.41c-0.04-0.17-0.09-0.35-0.09-0.52c-0.17-1.56-0.56-3.07-0.74-4.58
		c-2.04-10.59-3.9-21.14-5.5-31.73c-0.82-4.93-1.65-9.9-2.38-14.91c-0.82-5.1-1.6-10.24-2.34-15.39c-0.22-1.17-0.39-2.33-0.56-3.46
		c-0.52-3.2-0.95-6.4-1.39-9.6c-0.09-0.65-0.17-1.25-0.26-1.86c-0.22-1.64-0.43-3.28-0.61-4.97c-0.43-3.29-0.82-6.74-1.26-9.99
		l-0.61-4.28c-0.17-2.2-0.61-4.24-0.82-6.48c-0.43-3.07-0.78-6.1-1.08-9.16c-0.3-3.03-0.65-6.05-0.95-9.12
		c-1.39-12.02-2.64-23.99-3.64-36.23c-1.04-11.97-2.04-23.95-2.86-36.18c-0.39-6.1-0.82-12.19-1.21-18.29
		c-0.22-3.46-0.43-7.13-0.61-10.76c-0.13-0.69-0.17-1.43-0.17-2.16c-0.04-0.69-0.04-1.38-0.04-2.12c0-2.42-0.22-4.88-0.22-7.31
		c-0.39-5.32-0.61-10.76-0.61-16.25c-0.22-3.46-0.39-6.92-0.39-10.37c-0.22-4.5-0.43-9.16-0.43-13.62c-0.17-2.46-0.17-5.1-0.17-7.52
		v-1.25c-0.09-2.64-0.17-5.27-0.26-7.87c-0.04-1.08-0.04-2.16-0.04-3.2c-0.09-6.83-0.13-13.62-0.13-20.45
		c0-6.87,0.04-13.79,0.13-20.71c0.04-4.02,0.09-8.04,0.17-12.06c0.04-2.9,0.09-5.79,0.13-8.69l0.22-6.05l0.39-12.23
		c0-0.61,0-1.21,0.04-1.82c0.04-1.9,0.13-3.89,0.13-5.71c0.17-4.5,0.35-8.86,0.65-13.31c0.04-0.95,0.09-1.95,0.17-2.94
		c0.52-9.99,1.04-20.06,1.73-30.04c0.09-1.64,0.17-3.29,0.3-4.93c0.22-3.89,0.43-7.74,0.82-11.59c0.09-1.73,0.17-3.46,0.3-5.19
		c0.09-1.12,0.17-2.25,0.26-3.33c0.26-3.59,0.56-7.13,0.87-10.68c0.13-1.25,0.26-2.55,0.39-3.8c0.43-5.23,0.91-10.46,1.39-15.69
		c0.26-2.55,0.48-5.1,0.78-7.65c0.48-4.84,0.95-9.68,1.52-14.48c2.25-20.32,4.89-40.63,7.75-60.95c0.61-4.32,1.26-8.6,1.95-12.93
		c0.48-3.11,1-6.18,1.52-9.25c0.39-3.24,1-6.31,1.6-9.55c0.3-2.46,0.65-4.84,1.08-7.26c0.43-2.77,0.91-5.49,1.43-8.21
		c0.13-1.08,0.35-2.16,0.56-3.24c1.82-10.55,3.86-21.14,5.89-31.69c0.13-0.69,0.26-1.38,0.39-2.07c0.17-1.04,0.35-2.08,0.56-3.07
		c0.09-0.43,0.17-0.86,0.26-1.3c0.09-0.3,0.13-0.61,0.22-0.91c0.22-1.04,0.39-2.07,0.61-3.11c0.61-3.16,1.26-6.22,1.86-9.29
		c0.22-0.91,0.39-1.82,0.61-2.72c1.39-6.14,2.64-12.19,4.07-18.42c0.04-0.39,0.09-0.82,0.17-1.25c0.35-1.73,0.74-3.46,1.13-5.19
		c1.78-8.3,3.64-16.43,5.72-24.55c1.86-7.78,3.77-15.52,5.76-23.26c1.52-5.97,3.12-11.93,4.72-17.9c1.3-4.97,2.64-9.94,4.03-14.96
		c0.3-1.21,0.65-2.38,1-3.59c1.34-4.88,2.73-9.77,4.16-14.61c0.69-2.59,1.43-5.1,2.21-7.65c0-0.09,0.04-0.17,0.09-0.26
		c0.78-2.55,1.56-5.14,2.38-7.74c2.04-7.31,4.29-14.44,6.54-21.53c3.03-9.77,6.11-19.32,9.36-28.88c2.43-7.52,5.07-15.26,7.75-22.78
		c1.91-5.49,3.81-10.81,5.72-16.3c0.48-1.38,1-2.77,1.47-4.11c0.35-0.95,0.65-1.86,0.95-2.77c0.48-1.21,0.91-2.42,1.39-3.63
		c0.22-0.61,0.43-1.21,0.69-1.82c2.51-6.74,5.07-13.57,7.62-20.27c0.3-0.82,0.61-1.64,0.95-2.46c1.04-2.81,2.12-5.58,3.25-8.34
		c0.48-1.34,1-2.64,1.56-3.93c2.25-5.75,4.5-11.46,6.84-17.16c1.95-4.76,3.9-9.51,5.89-14.27c2.73-6.53,5.5-13.1,8.36-19.58
		c2.47-5.58,4.89-11.15,7.41-16.69c2.08-4.67,4.29-9.55,6.32-14.05c5.76-12.58,11.69-25.07,17.59-37.48
		c0.17-0.39,0.35-0.73,0.56-1.12c3.64-7.26,7.28-14.78,10.96-22.09c0.04-0.09,0.09-0.13,0.13-0.22c2.38-4.63,4.63-9.04,7.02-13.66
		c2.38-4.58,4.76-9.16,7.15-13.7c2.43-4.58,4.85-9.12,7.32-13.57c2.56-4.8,5.15-9.51,7.75-14.18c2.64-4.71,5.28-9.38,7.93-14.05
		c1.86-3.29,3.68-6.74,5.72-9.99c2.86-5.06,5.89-10.16,8.97-15.26c1.82-3.24,3.72-6.48,5.67-9.77c1.91-3.24,3.9-6.48,5.93-9.73
		c1.52-2.59,3.08-5.14,4.63-7.69c1.21-2.08,2.51-4.11,3.85-6.18c1.34-2.25,2.77-4.45,4.16-6.66c8.14-13.01,16.5-25.81,25.04-38.65
		c1.3-2.03,2.64-4.02,3.98-5.97c0.13-0.3,0.3-0.56,0.56-0.82c1.13-1.73,2.25-3.41,3.42-5.19c2.47-3.59,4.85-7.09,7.32-10.55
		c1.13-1.64,2.3-3.24,3.46-4.88c2.47-3.46,4.89-6.96,7.32-10.46c1.95-2.85,3.98-5.71,6.02-8.6c0.43-0.65,0.87-1.3,1.3-1.9
		c3.85-5.32,7.71-10.68,11.74-15.91c0.82-1.12,1.69-2.29,2.56-3.41c1-1.38,2.08-2.81,3.16-4.28c1.17-1.64,2.43-3.29,3.68-4.93
		c0.26-0.35,0.52-0.73,0.82-1.08c0-0.04,0-0.04,0.09-0.09c0.13-0.13,0.26-0.26,0.39-0.39c0.56-0.78,1.17-1.6,1.73-2.42
		c0-0.04,0.04-0.09,0.09-0.13c0.61-0.86,1.21-1.73,1.82-2.51c0.69-0.86,1.43-1.77,2.12-2.72c1.04-1.38,2.08-2.72,3.21-4.11
		c2.43-3.24,4.89-6.44,7.45-9.64c1.26-1.56,2.51-3.11,3.72-4.67c1.21-1.6,2.43-3.2,3.68-4.76c6.11-7.74,12.3-15.39,18.62-23
		c0.22-0.22,0.39-0.39,0.74-0.73c2.08-2.59,4.16-5.19,6.28-7.74c1.65-2.08,3.38-4.11,5.11-6.18c3.94-4.75,7.93-9.47,12.08-14.09
		c0.69-0.82,1.43-1.64,2.17-2.46c2.17-2.55,4.37-5.1,6.58-7.61c0.17-0.3,0.43-0.56,0.69-0.82c3.9-4.5,7.84-8.95,11.82-13.36
		c1.6-1.77,3.21-3.59,4.89-5.36c0.82-0.99,1.73-2.03,2.77-3.03c0.17-0.43,0.56-0.99,1.17-1.34c0.17-0.26,0.43-0.56,0.74-0.82
		c4.07-4.41,8.27-8.99,12.34-13.4c0.95-1.04,1.95-2.12,2.99-3.16c9.36-9.9,18.75-19.67,28.33-29.4c4.89-4.97,9.79-9.9,14.68-14.78
		c1.95-1.95,3.94-3.89,5.93-5.79c3.38-3.37,6.76-6.66,10.14-9.9c1.34-1.3,2.73-2.59,4.07-3.85c0.17-0.17,0.35-0.35,0.56-0.56
		c2.34-2.2,4.68-4.41,6.97-6.57c2.9-2.72,5.8-5.45,8.71-8.17c1.21-1.12,2.43-2.25,3.68-3.37c5.76-5.32,11.52-10.59,17.32-15.78
		c1.78-1.6,3.55-3.2,5.33-4.8c1.65-1.47,3.38-2.94,5.02-4.32c0.65-0.56,1.3-1.08,1.91-1.6c4.03-3.59,8.06-7.13,12.13-10.63
		c3.81-3.33,7.62-6.57,11.48-9.81c0.17-0.17,0.35-0.3,0.52-0.43c1.86-1.51,3.72-3.07,5.54-4.54c0.65-0.56,1.26-1.08,1.91-1.6
		c0.87-0.74,1.73-1.51,2.64-2.25c0.3-0.3,0.61-0.56,0.91-0.78c2.38-2.03,4.81-4.02,7.23-5.96c0.04-0.09,0.09-0.09,0.13-0.09
		c1.17-0.91,2.38-1.82,3.55-2.72c2.77-2.33,5.54-4.63,8.36-6.92c6.8-5.49,13.64-10.89,20.53-16.17c3.25-2.51,6.54-4.97,9.79-7.39
		c0.22-0.22,0.61-0.43,0.82-0.65c11-8.52,22.22-16.64,33.39-24.77c0.3-0.3,0.61-0.56,0.91-0.78c0.35-0.26,0.65-0.43,0.95-0.65
		c3.29-2.38,6.58-4.71,9.83-7.05c0.09-0.13,0.13-0.17,0.22-0.17c3.38-2.38,6.76-4.76,10.09-7.22c1.08-0.74,2.25-1.47,3.42-2.25
		c0.17-0.13,0.3-0.26,0.48-0.3c1.34-0.91,2.73-1.82,4.07-2.72c9.27-6.35,18.58-12.67,27.94-18.8c3.77-2.55,7.54-5.01,11.35-7.44
		c32.57-20.92,65.92-40.64,100.01-59.14c30.49-16.51,61.59-32.08,93.12-46.6c40.11-18.5,81.04-34.93,122.79-49.8
		c68.48-24.6,139.12-44.09,211.67-58.53c12.6-2.64,25.25-4.88,37.86-7.13c17.32-3.03,34.65-5.71,51.97-7.91
		c28.5-3.89,57.22-7.13,86.15-9.38c14.08-1.21,28.33-2.03,42.58-2.81c5.89-0.43,11.82-0.65,17.72-0.82c0.22,0.17,0.39,0,0.39,0
		c2.08-0.22,4.11-0.22,6.15-0.22c6.11-0.22,12.39-0.39,18.71-0.6c11.61-0.22,23.17-0.39,34.78-0.39h0.04
		c17.54,0,35.04,0.17,52.37,0.99c13.25,0.39,26.68,1.04,39.93,2.03h0.39c1.04,0,1.86,0,2.86,0.22c17.72,0.82,35.65,2.25,53.19,4.06
		c32.57,3.03,64.97,7.31,96.93,12.8l1.21,0.22c6.32,0.99,12.86,2.03,19.14,3.03c8.97,1.64,17.93,3.29,26.68,5.1
		c29.19,5.71,58.13,12.28,86.76,19.67c18.15,4.71,36.17,9.73,54.01,15.09c100.18,29.96,196.29,70.03,287.25,119.18
		c42.36,22.82,83.59,47.68,123.61,74.35l41.75,28.88c106.42,75.82,203.57,165,289.2,265.21
		c217.3,254.19,360.75,579.35,394.88,938.15C3159.51,1925.07,3162.16,1980.53,3162.16,2036.64z"/>
	<path class="st1" d="M1527.1,3624.05c0,15.22,27.07,42.28,56.83,67.87c-42.58,0-84.76-1.82-126.3-5.27
		c-4.89-16.25-18.93-66.05-18.93-82.96c0-6.31-4.63-29.18-11.48-58.27c-5.02-21.53-11.26-46.47-17.67-70.59
		c-12.65-47.6-25.68-92.12-31.96-101.46c-13.47-20.32-40.76-149.01-62.54-176.29c-22-27.02,49.07-88.01,49.07-88.01l-49.07-74.61
		v-149.01l49.07-67.7c0,0-34-155.93-47.43-196.61c-13.25-40.64,54.18-81.31,17.28-210.01c-36.86-128.91-3.85-271.22,0-352.71
		c3.9-81.75,9.79-108.16,30.15-182.77c20.4-74.44-6.93-115.08-27.29-237.07c-20.36-121.99,74.76-271.17,47.69-298.24
		c-27.33-27.02,0-182.99,0-182.99V757.5c0,0,74.54-121.99,74.54-210.01c0-64.24,25.03-121.99,38.68-148.62
		c5.11-9.94,8.58-15.43,8.58-15.43c5.89-0.43,11.82-0.65,17.72-0.82c0.22,0.17,0.39,0,0.39,0c2.08-0.22,4.11-0.22,6.15-0.22
		c6.11-0.22,12.39-0.39,18.71-0.6c11.61-0.22,23.22-0.39,34.82-0.39c0,0,4.07,98.39,0,139.02c-4.07,40.68-2.82,121.99,0,149.05
		c2.69,27.02,10.83,210.01,0,250.64c-10.78,40.68-50.29,291.54-50.29,291.54s6.71,61,20.36,142.31
		c13.64,81.31,34,176.07,29.93,223.62c-4.07,47.38-9.57,135.39,0,210.01c9.57,74.61-16.29,94.97,0,149.05
		c16.33,54.25-2.82,189.86,0,216.92c2.69,27.02-50.29,121.95-97.37,162.63c-47.04,40.64,26.72,47.38,0,74.61
		c-26.68,27.02,40.37,135.39,47.08,189.69c6.71,54.25,20.36,115.25,20.36,196.56c0,81.31-6.71,47.38-27.07,135.39
		c-20.4,88.23,13.43,108.59,13.43,142.31c0,33.98,34,149.23,43.57,203.31c9.57,54.3-57,155.93-57,182.99V3624.05z"/>
	<path class="st1" d="M2129.19,2159.07l-0.39,213.47c0,0,0.82,50.79,0,81.31c-0.82,25.81-21.4,102.24-27.89,162.02
		c-1.26,11.2-1.86,21.53-1.86,31.08c0,61,25.47,86.41,29.37,101.67c4.07,15.26-39.54,66.05-39.54,101.63
		c0,35.58,39.54,101.67,39.54,101.67l-1.65,3.85l-32.79,82.57c0,0,5.07,147.37,25.47,162.63c20.36,15.26,0,91.47,0,111.79
		c0,20.36-61.11,81.36-61.11,81.36s-30.58,91.47-43.62,129.3c-1.21,3.03-2.04,5.66-2.86,7.91c-5.41,15.22-25.47,37.96-44.31,56.98
		c-18.93,19.15-36.56,34.5-36.56,34.5l4.07,7.13l10.83,18.29c0,0-0.22,0-0.61,0.22c-68.65,16.86-139.34,29.05-211.24,35.97
		l41.32-40.85l25.9-25.81l22.05-44.22l19.49-39.12l11.82-23.39l71.29-40.68l-5.11-127.05l-20.36-101.67l71.29-45.74v-81.31
		c0,0-81.47-127.05-86.58-147.41c-3.46-13.79,0.22-84.12,2.64-132.54c1.43-22.57,2.47-40.46,2.47-45.35
		c0-15.22,96.76-111.79,96.76-111.79s56-76.26,0-127.05c-13.86-12.41-25.68-30.52-35.86-50.84
		c-31.36-62.42-46.86-147.41-50.72-162.63c-5.11-20.36,50.94-142.31,50.94-142.31l35.65-101.67l-45.82-299.88v-198.21l-40.76-66.05
		c0,0-67.83-135.61-74.76-169.37c-6.71-33.93,0-115.25,0-135.61c0-20.32,34-142.31,34-142.31l-61.07-108.33V796.92l-34.04-121.95
		v-88.06l-67.39-80.92l-0.43-0.39l-10.18-20.75l-41.97-85.77l-8.14-16.69c13.25,0.39,26.68,1.04,39.93,2.03h0.39
		c1.04,0,1.86,0,2.86,0.22c17.72,0.82,35.65,2.25,53.19,4.06c12.6,11.37,26.03,23.17,38.68,33.93l0.22,0.22
		c30.97,26.85,57.43,48.81,57.43,48.81l14.86,43.88l31.4,93.33l35.21,157.57l86.58,162.63l20.36,172.83l5.11,177.89l40.71,228.68
		l71.29,137.25v111.79l25.47,147.41L2129.19,2159.07z"/>
	<path class="st1" d="M2701.59,2667.3c0,10.17-40.74,77.86-50.92,94.94c-4.48,7.52-9.78,35.17-14.05,64.85
		c-1.63,11.59-3.26,23.79-4.69,34.97c-3.05,23.99-4.89,44.12-4.89,49.2c0,9.35-8.15,63.84-18.94,104.5
		c-4.68,18.3-9.98,33.75-15.07,41.27c-14.87,20.94-43.39,73.8-59.07,104.29c-2.04,4.06-3.87,7.73-5.5,10.77
		c-13.44,27.24-54.18,118.73-74.55,139.06c-20.37,20.33-95.12,111.82-112.03,121.98c-3.67,2.24-8.55,8.54-14.05,17.48
		c-9.98,16.26-21.8,40.86-31.98,63.63c-13.04,6.91-26.28,13.82-39.72,20.33c-2.04,1.02-4.28,2.24-6.52,3.25
		c-6.32,3.25-12.83,6.3-19.35,9.15c-1.22,0.81-2.65,1.42-4.07,2.03c-1.43,0.61-2.65,1.22-4.07,1.83c-3.87,2.03-7.94,3.86-11.81,5.49
		c-1.63,0.81-3.26,1.63-4.89,2.24c-4.28,1.83-8.35,3.86-12.63,5.69c-5.91,2.44-11.81,5.08-17.52,7.52
		c-3.06,1.42-6.11,2.64-9.17,3.86c-9.17,3.86-18.33,7.52-27.5,11.18c-1.63,0.61-3.06,1.22-4.69,1.83
		c-9.17,3.66-18.33,7.12-27.5,10.37c1.43-1.42,3.06-2.85,4.48-4.27c24.44-23.79,48.48-48.18,49.29-53.26
		c0.81-4.88,17.31-28.46,34.02-51.03c17.72-23.99,35.65-47.17,35.65-47.17s128.94-189.88,128.94-200.05
		c0-7.73,64.16-81.73,93.9-115.47c8.96-10.17,14.67-16.67,14.67-16.67l17.72-86.4l16.3-79.49c0,0,2.65-70.75,5.3-141.7
		c0.2-5.69,0.41-11.38,0.61-16.87c2.24-62.01,4.28-120.15,4.28-126.05c0-13.62,16.91-172.81,16.91-172.81v-203.3
		c0,0-20.37-118.73-44-139.06c-23.83-20.33,0-145.56,0-145.56V1786.4l-54.39-186.43l-40.74-169.35l-16.91-149.22l-37.48-193.14
		l-23.63-149.02l-88.4-88.03c0,0-54.18-78.07-62.74-91.49c-8.56-13.62-32.18-84.78-32.18-84.78l-74.76-58.35l-38.29-32.73
		l-50.92-43.51l-61.11-58.55l-51.33-31.1h-0.2l-15.07-9.15l-4.68-2.85l-59.89-15.86l-0.2-0.2l-93.09-37.61l-1.63-0.61
		c1.02,0,1.83,0,2.85,0.2c17.72,0.81,35.65,2.24,53.16,4.07c32.59,3.05,64.98,7.32,96.96,12.81l1.22,0.2
		c6.31,1.02,12.83,2.03,19.15,3.05c8.96,1.63,17.93,3.25,26.68,5.08l20.57,12.6l37.07,22.77h0.2l9.98,6.1
		c0,0,118.75,98.19,128.94,111.82c10.18,13.62,115.49,67.7,128.94,71.16c13.65,3.46,84.94,81.32,95.13,98.19
		c4.48,7.52,21.59,40.46,39.92,75.63c23.43,45.34,48.28,93.92,48.28,93.92l125.68,152.48c0,0,16.91,138.85,20.37,149.02
		c3.46,10.17,34.02,88.03,34.02,88.03l-23.83,111.82l74.76,128.89c0,0,88.2,193.14,94.92,206.55
		c6.93,13.62-16.91,142.31-16.91,155.93c0,13.62-6.72,213.47-10.18,230.34c-3.46,17.08,13.65,149.22,13.65,149.22
		s37.28,115.07,37.28,132.15c0,16.87-40.74,74.41-54.39,118.52C2667.78,2569.11,2701.59,2657.14,2701.59,2667.3z"/>
	<path class="st1" d="M3089.42,2291.19l-25.46,83.96v121.98c0,0-33,119.34-38.09,129.5c-5.09,10.17-38.29,104.29-38.29,104.29
		l-5.91,66.48l-0.81,10.17c-14.87,29.68-30.76,58.96-47.46,87.62c-12.42,21.35-25.05,42.29-38.29,62.82
		c-38.7,60.79-81.27,118.52-127.31,173.01c-0.2,0.41-0.41,0.81-0.81,1.22c-21.18,25.01-42.98,49.4-65.39,72.99
		c-55.81,58.75-115.9,113.24-179.86,162.64c-14.67,11.59-29.54,22.57-44.61,33.54l20.57-21.55l97.77-102.67l72.11-78.27l14.46-15.65
		l53.57-162.64l42.16-48.18l31.98-36.39l14.87-17.08l49.7-96.97l8.96-17.49l-10.18-127.06l50.92-48.18l15.28-203.3l27.91-114.46
		v-243.96c0,0-20.37-101.65-25.46-111.82c-5.09-10.17-15.28-129.5-15.28-129.5s-35.65-119.54-48.28-150.04
		c-7.74-18.3-1.63-56.72,4.48-84.57c0-0.2,0-0.2,0-0.2c4.07-18.5,8.15-32.12,8.15-32.12l-50.92-127.06l-35.65-53.26
		c0,0-33-30.49-38.09-43.3c-5.09-12.6,17.72-12.6,17.72-12.6v-50.82l-78.83-127.06v-53.47l-53.57-91.49l-53.37-53.26l-50.92-96.57
		l-56.02-43.3l-61.11-88.84c0,0-58.66-43.3-68.85-40.66c-10.18,2.44-96.75-89.05-96.75-89.05l-137.49-68.51l-71.29-48.39
		l-87.59-27.24l-70.68-21.96l-48.28-15.04l-18.13-5.69c6.31,1.02,12.83,2.03,19.15,3.05c8.96,1.63,17.93,3.25,26.68,5.08
		c47.66,9.35,94.72,20.94,140.75,34.76c146.86,43.91,284.97,109.58,410.85,193.54l41.76,28.87l43.79,84.17l168.05,165.28
		l76.39,152.48l140.14,180.33l22.81,129.71l68.85,213.47l7.54,124.42l73.94,251.69l-23.02,139.67L3089.42,2291.19z"/>
	<path class="st1" d="M1524.03,382.62c-0.22,0.17-0.22,0.17-0.39,0.17c-5.72,0.22-14.9,6.53-25.9,16.08
		c-8.32,7.31-17.71,16.86-27.29,27.02c-23,24.21-46.65,52.26-58.86,66.1c-23.82,27.02-71.29,169.33-128.94,213.46
		c-16.68,12.62-34,43.7-50.11,81.31c-39.72,93.12-72.72,227.08-72.72,227.08l-19.75,250.68c0,0,16.89,145.77-50.94,196.61
		c-68,50.79,3.29,30.48-17.11,128.65c-3.25,16.08-8.97,29.09-15.68,40.07c-34.82,56.5-101.44,62.21-58.86,169.98
		c50.94,128.87,27.11,254.1,27.11,254.1s-78.05,135.61-88.23,172.83c-10.18,37.39-34,81.31,37.29,182.94
		c71.29,101.67,3.46,152.47,3.46,152.47l-20.36,159.39l16.89,165.91c-34.04,128.91,3.46,186.45,27.07,237.24
		c23.87,50.84,101.87,149.01,88.4,199.85c-1.21,4.5-2.04,9.38-2.64,14.44c-2.73,19.97-1.26,43.19,1.91,65.36
		c4.94,34.45,13.95,66.36,17.67,79.58c2.86,9.77,28.93,30.69,58.86,52.26c42.97,30.91,93.9,62.81,93.9,62.81l69.47,71.15
		c-86.37-14.65-170.09-36.79-251.17-65.66h-0.22c-11.61-12.19-20.36-25.2-25.25-39.25c-15.29-43.1-25.64-74.61-33-96.75
		c-11.82-37-14.47-49.02-14.47-49.02s-35.17-75.61-42.75-103.84c-0.91-3.42-1.43-6.14-1.43-7.95c0-16.86-91.69-81.31-105.12-101.67
		c-3.03-4.67-2.86-14.22-1.21-27.02c5.89-43.7,29.32-125.23-2.25-176.24c-40.71-66.1-55.4-203.31-55.4-203.31l3.25-198.25
		l-3.25-172.79c0,0,29.93-254.14,3.25-310.04c-26.9-55.9,123.44-264.3,67.44-304.94c-56-40.68-67.44-106.73-67.44-106.73
		l26.68-137.25c0,0,81.47-66.05,101.87-116.89c20.36-50.84,0-152.47,0-152.47s34.61-89.66,52.54-129.73
		c3.68-8.52,6.71-15.04,8.58-17.68c6.89-10.16,13.64-59.35-11.82-78.24c-12.43-9.38-32.79-11.41-64.58,2.03
		c-96.76,40.63,25.47-116.89,25.47-116.89l44.83-54.08l77.4-93.33c0,0,71.29-177.89,81.47-198.2
		c10.18-20.36,101.83-55.94,106.94-96.57c0.61-6.53,8.36-16.69,20.57-29.48c23.82-24.81,65.58-59.18,108.37-92.29
		c28.5-3.89,57.22-7.13,86.15-9.38c14.08-1.21,28.33-2.03,42.58-2.81C1512.21,383.01,1518.14,382.79,1524.03,382.62z"/>
	<path class="st1" d="M1325.61,403.54c-10.18,10.16-25.86,21.74-44.79,33.98c-44.01,28.44-105.12,59.96-151.98,82.52
		c-22.39,10.76-51.72,26.24-84.33,44.53c-89.61,50.19-201.45,121.17-245.24,171.36c-59.86,68.73-103.26,190.73-238.09,274.46
		c-135.05,83.99-15.29,231.36-122.23,327.93s-15.29,61-96.76,167.73s-33.22,396.45-66.18,447.25
		c-33.22,50.84-7.75,83.78-61.11,223.62c-53.58,139.67,22.78,167.73,22.78,213.46c0,45.78,7.75,66.1-12.6,109.2
		c-3.38,7.18-4.68,17.55-4.42,30.09c1.04,63.03,39.63,181.73,37.42,236.85c-2.47,66.05,148.69,178.71,175.76,293.74
		c14.25,60.39,116.12,193.58,202.1,299.49c-72.72-57.32-140.38-120.95-202.7-190.51c0-0.22-0.22-0.22-0.39-0.39
		c-72.94-145.77-184.77-347.65-190.06-384.65c-7.54-53.26-17.72-50.84-61.11-167.73c-16.2-43.79-21.31-102.89-22.31-161.55
		c-1.69-97.96,8.06-194.75-3.16-217.01c-17.71-35.58,15.29-226.26,17.93-274.46c2.47-48.37,43.18-236.42,25.47-292.31
		c-17.93-55.94,27.89-134.62,53.36-185.41c25.47-50.84,35.65-66.1,66.23-144.99c30.54-78.68,84.11-50.79,71.29-124.41
		c-12.65-73.79,58.65-150,86.54-190.68c28.11-40.68,119.8-121.99,135.05-142.31c15.29-20.32,35.65-86.41,35.65-86.41
		s101.87-91.47,148.3-142.31c19.36-21.14,85.98-77.25,157.27-135.61c40.11-18.5,81.04-34.93,122.79-49.8
		c68.48-24.6,139.12-44.09,211.67-58.53C1300.36,408.04,1313.01,405.79,1325.61,403.54z"/>
	<path class="st1" d="M760.17,624.74c-16.68,27.84-37.08,54.47-61.5,74.01c-84.94,67.7-156.23,101.63-173.12,142.31
		c-16.94,40.63-105.34,162.63-173.16,230.32c-67.83,67.7-101.83,162.63-101.83,196.61c0,33.72-103.91,176.07-99.4,213.46
		c4.24,37.18-9.18,128.69-46.65,223.62c-37.29,94.76-47.47,301.48-44.01,362.48c3.25,61,27.07,210.01,23.61,277.92
		c-0.3,6.74-0.17,13.88,0.3,21.27c4.55,66.83,39.28,158.18,43.92,236.12c1.43,25.81,5.28,60.56,9.36,96.57
		c-3.59-8.6-7.1-17.25-10.57-25.94c-3.25-8.17-6.45-16.43-9.57-24.68c-4.85-12.62-9.53-25.38-13.99-38.21
		c-1.69-4.67-3.33-9.34-4.89-14.05c-6.19-17.98-12.08-36.05-17.63-54.34c0,0-0.04-0.04-0.04-0.09c-1.91-6.22-3.77-12.45-5.59-18.72
		c-0.09-0.26-0.17-0.56-0.26-0.86c-1.43-4.8-2.81-9.64-4.16-14.53c-0.48-1.56-0.91-3.16-1.34-4.75c-0.48-1.56-0.91-3.11-1.3-4.71
		c-0.48-1.64-0.95-3.29-1.34-4.93c-1.82-6.87-3.64-13.75-5.5-20.66c-0.22-0.82-0.43-1.64-0.65-2.46c-0.17-0.43-0.26-0.86-0.35-1.3
		c-2.54-9.71-4.92-19.48-7.24-29.28c-1.11-4.57-2.19-9.16-3.24-13.78c-1.75-7.52-3.37-15.1-4.98-22.71
		c-3.38-15.64-6.62-31.34-9.57-47.15c-0.04-0.17-0.09-0.35-0.09-0.52c-1.26-6.77-2.45-13.57-3.64-20.37
		c-0.01-0.03-0.01-0.07-0.02-0.1c-1.78-10.25-3.49-20.52-5.05-30.84c-1.04-6.23-1.95-12.49-2.82-18.76c-0.52-3.2-0.95-6.4-1.39-9.6
		c-0.09-0.65-0.17-1.25-0.26-1.86c-0.85-6.23-1.63-12.48-2.4-18.73l-0.07-0.5c-0.03-0.43-0.1-0.84-0.15-1.26
		c-0.21-1.74-0.47-3.47-0.67-5.22c-0.43-3.07-0.78-6.1-1.08-9.16c-4.37-37.22-7.54-74.83-9.44-112.74
		c-0.91-17.68-1.48-35.44-1.83-53.26c0-0.14-0.01-0.27-0.01-0.4c-0.08-4.22-0.23-8.43-0.28-12.66c-0.04-1.08-0.04-2.16-0.04-3.2
		c-0.09-6.83-0.13-13.62-0.13-20.45c0-6.87,0.04-13.79,0.13-20.71c0.04-4.02,0.09-8.04,0.17-12.06c0.09-4.93,0.22-9.81,0.35-14.74
		c0.13-4.67,0.26-9.38,0.43-14.05c0.22-6.35,0.48-12.67,0.78-19.02c0.62-13.75,1.46-27.42,2.4-41.07c0.09-1.49,0.2-2.97,0.31-4.45
		c0.22-3.05,0.4-6.12,0.63-9.17c0.09-1.12,0.17-2.25,0.26-3.33c0.26-3.59,0.56-7.13,0.87-10.68c0.56-6.53,1.17-13.01,1.78-19.5
		c0.26-2.55,0.48-5.1,0.78-7.65c0.48-4.84,0.95-9.68,1.52-14.48c2.21-20.45,4.81-40.76,7.75-60.95c0.61-4.32,1.26-8.6,1.95-12.93
		c0.58-3.9,1.25-7.76,1.88-11.64c0.18-1.15,0.35-2.31,0.56-3.45c0.6-3.66,1.15-7.34,1.77-10.98c0.43-2.77,0.91-5.49,1.43-8.21
		c0.13-1.08,0.35-2.16,0.56-3.24c1.95-11.33,4.03-22.57,6.28-33.76c0.17-1.04,0.35-2.08,0.56-3.07c0.09-0.43,0.17-0.86,0.26-1.3
		c0.26-1.34,0.52-2.68,0.82-4.02c0.78-4.02,1.6-8.04,2.47-12.02c1.34-6.57,2.77-13.14,4.24-19.67c0.35-1.73,0.74-3.46,1.13-5.19
		c1.86-8.21,3.77-16.38,5.72-24.55c1.86-7.78,3.77-15.52,5.76-23.26c1.52-5.97,3.12-11.93,4.72-17.9c1.3-4.97,2.64-9.94,4.03-14.96
		c0.3-1.21,0.65-2.38,1-3.59c1.34-4.88,2.73-9.77,4.16-14.61c0.69-2.59,1.43-5.1,2.21-7.65c0-0.09,0.04-0.17,0.09-0.26
		c1.46-5,2.99-9.96,4.5-14.94c0.57-1.91,1.14-3.83,1.73-5.73c4.98-16.21,10.2-32.31,15.64-48.3c0.08-0.24,0.16-0.47,0.24-0.71
		c3.15-9.22,6.35-18.41,9.64-27.54c0.48-1.38,1-2.77,1.47-4.11c0.78-2.16,1.56-4.28,2.34-6.4c0.22-0.61,0.43-1.21,0.69-1.82
		c2.47-6.79,5.02-13.53,7.62-20.27c0.3-0.82,0.61-1.64,0.95-2.46c1.04-2.81,2.12-5.58,3.25-8.34c0.48-1.34,1-2.64,1.56-3.93
		c2.25-5.75,4.5-11.46,6.84-17.16c1.95-4.76,3.9-9.51,5.89-14.27c2.73-6.53,5.5-13.1,8.36-19.58c2.47-5.58,4.89-11.15,7.41-16.69
		c1.01-2.27,2.05-4.58,3.08-6.88c3.83-8.5,7.73-16.95,11.7-25.36c3.03-6.45,6.08-12.88,9.13-19.29c0.17-0.39,0.35-0.73,0.56-1.12
		c3.64-7.26,7.28-14.78,10.96-22.09c0.04-0.09,0.09-0.13,0.13-0.22c2.38-4.63,4.63-9.04,7.02-13.66c2.38-4.58,4.76-9.16,7.15-13.7
		c4.94-9.29,9.92-18.55,15.07-27.75c3.06-5.57,6.22-11.08,9.35-16.61c0.56-1,1.12-1.99,1.69-3c5.64-9.88,11.37-19.71,17.24-29.46
		c3.42-5.84,6.97-11.63,10.57-17.42c1.21-2.08,2.51-4.11,3.85-6.18c1.34-2.25,2.77-4.45,4.16-6.66c1.17-1.87,2.38-3.72,3.56-5.58
		c7.01-11.11,14.12-22.16,21.47-33.06c1.3-2.03,2.64-4.02,3.98-5.97c0.13-0.3,0.3-0.56,0.56-0.82c3.51-5.27,7.06-10.5,10.74-15.74
		c3.51-5.14,7.1-10.25,10.78-15.35c1.95-2.85,3.98-5.71,6.02-8.6c4.29-5.97,8.62-11.93,13.04-17.81c1.86-2.59,3.77-5.14,5.72-7.69
		c1.17-1.64,2.43-3.29,3.68-4.93c0.26-0.35,0.52-0.73,0.82-1.08c0-0.04,0-0.04,0.09-0.09c0.65-0.95,1.39-1.9,2.12-2.81
		c0-0.04,0.04-0.09,0.09-0.13c1.3-1.77,2.6-3.5,3.94-5.23c1.04-1.38,2.08-2.72,3.21-4.11c2.43-3.24,4.89-6.44,7.45-9.64
		c2.43-3.16,4.89-6.31,7.41-9.42c6.11-7.74,12.3-15.39,18.62-23c2.25-2.85,4.59-5.66,7.02-8.47c1.65-2.08,3.38-4.11,5.11-6.18
		c3.98-4.71,7.97-9.42,12.08-14.09c2.86-3.37,5.76-6.74,8.75-10.07c0.17-0.3,0.43-0.56,0.69-0.82c3.9-4.5,7.84-8.95,11.82-13.36
		c1.6-1.77,3.21-3.59,4.89-5.36c0.82-0.99,1.73-2.03,2.77-3.03c0.3-0.43,0.69-0.91,1.17-1.34c0.17-0.26,0.43-0.56,0.74-0.82
		c4.07-4.5,8.19-8.95,12.34-13.4c0.95-1.04,1.95-2.12,2.99-3.16c4.73-5.01,9.48-9.98,14.25-14.94c9.47-9.86,19.02-19.64,28.76-29.24
		c1.95-1.95,3.94-3.89,5.93-5.79c4.68-4.63,9.44-9.21,14.21-13.75c0.17-0.17,0.35-0.35,0.56-0.56c5.2-4.93,10.44-9.86,15.68-14.74
		c1.21-1.12,2.43-2.25,3.68-3.37c5.76-5.32,11.52-10.59,17.32-15.78c3.47-3.07,6.89-6.14,10.35-9.12
		c4.63-4.15,9.31-8.26,14.03-12.23c3.81-3.33,7.62-6.57,11.48-9.81c0.17-0.17,0.35-0.3,0.52-0.43c3.34-2.85,6.71-5.66,10.09-8.39
		c0.3-0.3,0.61-0.56,0.91-0.78c2.38-2.03,4.81-4.02,7.23-5.96c0.04-0.09,0.09-0.09,0.13-0.09c3.94-3.29,7.93-6.48,11.91-9.64
		c6.8-5.49,13.64-10.89,20.53-16.17c14.77-11.54,29.76-22.74,44.92-33.59c3.6-2.64,7.19-5.19,10.79-7.69
		c0.09-0.13,0.13-0.17,0.22-0.17c4.5-3.2,9.01-6.35,13.51-9.47c0.17-0.13,0.3-0.26,0.48-0.3c10.57-7.35,21.27-14.52,32.01-21.53
		C752.59,629.63,756.36,627.16,760.17,624.74z"/>
	<path class="st1" d="M957.98,3556.31c-55.22-24.77-108.8-53.26-160.52-84.34c-0.22-0.22-0.22-0.22-0.22-0.22
		c-12.6-21.96-20.96-41.28-20.57-52.26c1.86-38.6-132.41-149.01-125.48-176.24c5.28-20.92-54.79-62.21-77.4-124.02
		c-6.5-17.9-9.79-37.61-7.54-58.96c6.58-61.21-49.2-147.97-89.44-220.9c-22.09-39.94-39.5-75.74-39.5-100.9
		c0-59.57-28.33-90.48-33.61-152.47c-1.21-12.23-1.43-25.63-0.17-40.68c7.1-91.47,54.14-189.69,23.61-277.92
		c-30.54-88.01-37.47-189.69,16.89-255.74c54.4-66.05,67.83-116.89,56.44-198.2c-11.39-81.36,21.61-108.38,59.08-166.13
		c37.29-57.54-20.36-128.69-20.36-203.26c0-74.44,122.19-162.67,162.94-179.53c40.76-16.86,142.59-125.45,142.59-125.45
		c0,44.14-88.4,169.54-146.05,206.76c-57.65,37.22-61.11,261.45-61.11,261.45s-44.18,209.62-61.11,253.32
		c-16.89,43.92-47.47,112.01-23.82,151.04c23.82,39.04,3.47,120.35-6.71,201.66c-10.18,81.31-44.22,84.6-16.94,145.55
		c27.11,61,3.29,179.75,3.29,227.13c-74.58,142.31,0,186.4,44.18,243.94c23.04,30.09,42.58,73.19,51.54,120.57
		c3.73,20.36,5.59,41.41,4.94,62.55c-0.69,23.91-4.5,47.85-12.26,71.02c-14.68,44.09,8.36,87.19,40.93,125.84
		c34.65,41.67,80.47,78.07,101.65,104.48C794.6,3353.66,909.29,3483.56,957.98,3556.31z"/>
</g>
</svg>
