<svg xmlns="http://www.w3.org/2000/svg" viewBox="0 0 512 512"><defs><style>.cls-1{fill:#06d7a0;}.cls-2{fill:#fff2d1;}.cls-3{fill:#d7385f;}.cls-4{fill:#f04770;}.cls-5{fill:#0abc89;}.cls-6{fill:#622f2b;}</style></defs><title>Asset 1</title><g id="Layer_2" data-name="Layer 2"><g id="Layer_1-2" data-name="Layer 1"><path class="cls-1" d="M256,0,199.11,256,256,512c141.39,0,256-114.61,256-256S397.39,0,256,0Z"/><circle class="cls-2" cx="256" cy="256" r="225.1"/><path class="cls-3" d="M256,450.19c107.25,0,194.19-86.94,194.19-194.19S363.25,61.81,256,61.81Z"/><path class="cls-4" d="M419.28,256c0-107.25-73.1-194.19-163.28-194.19C148.75,61.81,61.81,148.75,61.81,256S148.75,450.19,256,450.19C346.18,450.19,419.28,363.25,419.28,256Z"/><path class="cls-1" d="M0,256C0,397.39,114.61,512,256,512L199.11,256,256,0C114.61,0,0,114.61,0,256Z"/><path class="cls-5" d="M180.26,43.09c-21.58,15.43-54.74,25.6-70.07,51.35-13.37,22.44-6.34,54.43-13.36,82.5C90.48,202.33,68.27,227.61,68.27,256s22.21,53.67,28.56,79.06c7,28.07,0,60.06,13.36,82.5,15.33,25.74,48.49,35.92,70.07,51.35C204.7,486.39,226.61,512,256,512L220.8,256,256,0C226.61,0,204.7,25.61,180.26,43.09Z"/><path class="cls-1" d="M256,0c-18.74,0-27.68,29.24-41.91,57.66-8.85,17.66-34,34.18-40,59.7-4.86,20.68,9.73,46.31,7.23,70.74-2.22,21.82-22,44-22,67.9s19.8,46.08,22,67.9c2.5,24.43-12.09,50.05-7.23,70.73,6,25.52,31.16,42.05,40,59.7C228.32,482.76,237.25,512,256,512Z"/><path class="cls-6" d="M419.28,263.73H409a7.73,7.73,0,0,1,0-15.46h10.3a7.73,7.73,0,1,1,0,15.46Z"/><path class="cls-6" d="M401.27,181.05l-8.92,5.15a7.73,7.73,0,0,1-7.73-13.38l8.93-5.15a7.72,7.72,0,1,1,7.72,13.38Z"/><path class="cls-6" d="M344.33,118.46l-5.15,8.92a7.73,7.73,0,0,1-13.38-7.73l5.15-8.92a7.73,7.73,0,1,1,13.38,7.73Z"/><path class="cls-6" d="M331,401.27l-5.15-8.92a7.73,7.73,0,0,1,13.38-7.73l5.15,8.93A7.72,7.72,0,1,1,331,401.27Z"/><path class="cls-6" d="M393.55,344.33l-8.93-5.15a7.73,7.73,0,0,1,7.73-13.38l8.92,5.15a7.72,7.72,0,1,1-7.72,13.38Z"/></g></g></svg>